<svg width="28" height="28" viewBox="0 0 28 28" fill="none" xmlns="http://www.w3.org/2000/svg">
<path d="M14.0002 11.1068C13.4279 11.1068 12.8685 11.2765 12.3927 11.5944C11.9169 11.9124 11.5461 12.3642 11.3271 12.8929C11.1081 13.4216 11.0508 14.0034 11.1624 14.5646C11.2741 15.1259 11.5496 15.6414 11.9543 16.0461C12.3589 16.4507 12.8745 16.7263 13.4357 16.8379C13.997 16.9495 14.5787 16.8922 15.1074 16.6733C15.6361 16.4543 16.088 16.0834 16.4059 15.6076C16.7238 15.1318 16.8935 14.5724 16.8935 14.0002C16.8935 13.6202 16.8187 13.244 16.6733 12.8929C16.5279 12.5419 16.3147 12.2229 16.0461 11.9543C15.7774 11.6856 15.4584 11.4725 15.1074 11.3271C14.7564 11.1817 14.3801 11.1068 14.0002 11.1068ZM25.5852 8.2485C25.579 7.34755 25.4131 6.45483 25.0952 5.61183C24.861 4.99497 24.4987 4.43477 24.0321 3.96821C23.5656 3.50165 23.0054 3.13933 22.3885 2.90516C21.5455 2.5872 20.6528 2.4213 19.7518 2.41516C18.2468 2.3335 17.8035 2.3335 14.0002 2.3335C10.1968 2.3335 9.7535 2.3335 8.2485 2.41516C7.34755 2.4213 6.45483 2.5872 5.61183 2.90516C4.99497 3.13933 4.43477 3.50165 3.96821 3.96821C3.50165 4.43477 3.13933 4.99497 2.90516 5.61183C2.5872 6.45483 2.4213 7.34755 2.41516 8.2485C2.3335 9.7535 2.3335 10.1968 2.3335 14.0002C2.3335 17.8035 2.3335 18.2468 2.41516 19.7518C2.42772 20.656 2.5934 21.5514 2.90516 22.4002C3.1383 23.0142 3.50031 23.5712 3.96683 24.0335C4.43139 24.5029 4.99278 24.8652 5.61183 25.0952C6.45483 25.4131 7.34755 25.579 8.2485 25.5852C9.7535 25.6668 10.1968 25.6668 14.0002 25.6668C17.8035 25.6668 18.2468 25.6668 19.7518 25.5852C20.6528 25.579 21.5455 25.4131 22.3885 25.0952C23.0075 24.8652 23.5689 24.5029 24.0335 24.0335C24.5 23.5712 24.862 23.0142 25.0952 22.4002C25.4128 21.553 25.5787 20.6565 25.5852 19.7518C25.6668 18.2468 25.6668 17.8035 25.6668 14.0002C25.6668 10.1968 25.6668 9.7535 25.5852 8.2485ZM22.6218 17.5818C22.5844 18.3018 22.4307 19.0109 22.1668 19.6818C21.9403 20.2415 21.6036 20.7498 21.1767 21.1767C20.7498 21.6036 20.2415 21.9403 19.6818 22.1668C19.0046 22.416 18.2915 22.5539 17.5702 22.5752H10.4302C9.70885 22.5539 8.99573 22.416 8.3185 22.1668C7.73995 21.9518 7.21749 21.6088 6.79016 21.1635C6.36744 20.745 6.04098 20.2393 5.8335 19.6818C5.58331 19.0053 5.4492 18.2914 5.43683 17.5702V10.4302C5.4492 9.70896 5.58331 8.99503 5.8335 8.3185C6.04849 7.73995 6.39148 7.21749 6.83683 6.79016C7.25722 6.36972 7.7623 6.04361 8.3185 5.8335C8.99573 5.5843 9.70885 5.44641 10.4302 5.42516H17.5702C18.2915 5.44641 19.0046 5.5843 19.6818 5.8335C20.2604 6.04849 20.7828 6.39148 21.2102 6.83683C21.6329 7.25537 21.9593 7.76098 22.1668 8.3185C22.416 8.99573 22.5539 9.70885 22.5752 10.4302V14.0002C22.5752 16.4035 22.6568 16.6485 22.6218 17.5702V17.5818ZM20.7552 8.90183C20.6163 8.52498 20.3972 8.18275 20.1132 7.89875C19.8292 7.61475 19.487 7.39574 19.1102 7.25683C18.5927 7.07747 18.0477 6.99059 17.5002 7.00016H10.5002C9.94981 7.00554 9.40474 7.10824 8.89016 7.3035C8.51908 7.4361 8.18047 7.64616 7.89684 7.91973C7.61322 8.1933 7.39107 8.52411 7.24516 8.89016C7.07574 9.40976 6.99296 9.95369 7.00016 10.5002V17.5002C7.01173 18.0499 7.11423 18.5939 7.3035 19.1102C7.4424 19.487 7.66141 19.8292 7.94541 20.1132C8.22941 20.3972 8.57164 20.6163 8.9485 20.7552C9.44627 20.9382 9.97009 21.0406 10.5002 21.0585H17.5002C18.0505 21.0531 18.5956 20.9504 19.1102 20.7552C19.487 20.6163 19.8292 20.3972 20.1132 20.1132C20.3972 19.8292 20.6163 19.487 20.7552 19.1102C20.9504 18.5956 21.0531 18.0505 21.0585 17.5002V10.5002C21.0588 9.94926 20.9559 9.40317 20.7552 8.89016V8.90183ZM14.0002 18.4568C13.4155 18.4568 12.8365 18.3415 12.2964 18.1174C11.7564 17.8933 11.2659 17.5648 10.8529 17.1508C10.44 16.7368 10.1129 16.2454 9.89016 15.7048C9.66747 15.1641 9.55363 14.5849 9.55516 14.0002C9.55517 13.1182 9.81684 12.2561 10.3071 11.523C10.7973 10.7898 11.494 10.2186 12.309 9.88164C13.1241 9.54467 14.0208 9.45709 14.8856 9.63C15.7504 9.80291 16.5445 10.2285 17.1673 10.853C17.7901 11.4774 18.2136 12.2726 18.3843 13.1379C18.5549 14.0032 18.465 14.8996 18.1259 15.7138C17.7868 16.5279 17.2138 17.2231 16.4793 17.7114C15.7449 18.1997 14.8821 18.4591 14.0002 18.4568ZM18.6668 10.4185C18.4089 10.3912 18.1703 10.2694 17.9968 10.0766C17.8233 9.88384 17.7274 9.63367 17.7274 9.37433C17.7274 9.11499 17.8233 8.86482 17.9968 8.67203C18.1703 8.47924 18.4089 8.35746 18.6668 8.33016C18.9247 8.35746 19.1634 8.47924 19.3369 8.67203C19.5103 8.86482 19.6063 9.11499 19.6063 9.37433C19.6063 9.63367 19.5103 9.88384 19.3369 10.0766C19.1634 10.2694 18.9247 10.3912 18.6668 10.4185Z" fill="#0C0C0C"/>
</svg>
