<svg width="164" height="32" viewBox="0 0 164 32" fill="none" xmlns="http://www.w3.org/2000/svg">
<path d="M14.9067 11.9107L19.216 4.44933C21.016 4.91422 22.6436 5.82356 24.0987 7.17733C25.5547 8.53111 26.6124 10.1089 27.272 11.9107H14.9067ZM11.8507 15.0133L7.564 7.47467C8.69556 6.36533 9.98311 5.50889 11.4267 4.90533C12.8702 4.30178 14.3947 4 16 4C16.3404 4 16.7293 4.02089 17.1667 4.06267C17.604 4.10444 17.9356 4.14756 18.1613 4.192L11.8507 15.0133ZM4.384 18.9733C4.25067 18.4062 4.15333 17.8836 4.092 17.4053C4.03067 16.9262 4 16.4578 4 16C4 14.5929 4.23867 13.2409 4.716 11.944C5.19244 10.6462 5.88889 9.42844 6.80533 8.29067L12.9227 18.9747H4.38267L4.384 18.9733ZM12.9213 27.6027C11.0191 27.1031 9.32178 26.168 7.82933 24.7973C6.33689 23.4267 5.29511 21.832 4.704 20.0133H17.24L12.92 27.6027H12.9213ZM16 28C15.6667 28 15.3067 27.9778 14.92 27.9333C14.5324 27.8889 14.2169 27.8444 13.9733 27.8L20.2533 17.1413L24.4613 24.5C23.3467 25.6093 22.0591 26.4702 20.5987 27.0827C19.1382 27.6942 17.6053 28 16 28ZM25.1947 23.7107L19.0773 12.9733H27.6173C27.7338 13.4889 27.8271 14.0031 27.8973 14.516C27.9658 15.0298 28 15.5244 28 16C28 17.4356 27.7618 18.7964 27.2853 20.0827C26.8098 21.368 26.1129 22.5769 25.1947 23.7093V23.7107Z" fill="#0C0C0C"/>
<path d="M53.0703 22H45.8594C45.0833 22 44.3776 21.8542 43.7422 21.5625C43.1068 21.2708 42.5625 20.8724 42.1094 20.3672C41.6615 19.862 41.3151 19.2682 41.0703 18.5859C40.8255 17.9036 40.7031 17.1745 40.7031 16.3984C40.7031 15.6276 40.8255 14.9036 41.0703 14.2266C41.3151 13.5443 41.6615 12.9505 42.1094 12.4453C42.5625 11.9349 43.1068 11.5339 43.7422 11.2422C44.3776 10.9453 45.0833 10.7969 45.8594 10.7969H53.0703V12.3984H45.8594C45.3073 12.3984 44.8099 12.5052 44.3672 12.7188C43.9297 12.9271 43.5573 13.2135 43.25 13.5781C42.9479 13.9375 42.7135 14.3594 42.5469 14.8438C42.3854 15.3281 42.3047 15.8464 42.3047 16.3984C42.3047 16.9505 42.3854 17.4714 42.5469 17.9609C42.7135 18.4453 42.9479 18.8698 43.25 19.2344C43.5573 19.5938 43.9297 19.8776 44.3672 20.0859C44.8099 20.2943 45.3073 20.3984 45.8594 20.3984H53.0703V22ZM65.1953 22H63.5938V17.6016C63.5938 17.2161 63.5208 16.8542 63.375 16.5156C63.2292 16.1771 63.0312 15.8828 62.7812 15.6328C62.5312 15.3776 62.237 15.1771 61.8984 15.0312C61.5651 14.8802 61.2057 14.8021 60.8203 14.7969H56.4219V22H54.8203V10H56.4219V13.2031H60.8203C61.4245 13.2031 61.9922 13.3203 62.5234 13.5547C63.0547 13.7839 63.5182 14.099 63.9141 14.5C64.3099 14.8958 64.6224 15.362 64.8516 15.8984C65.0807 16.4297 65.1953 16.9974 65.1953 17.6016V22ZM76.0938 14.7969H70.0938C69.9271 14.7969 69.7708 14.8307 69.625 14.8984C69.4792 14.9609 69.3516 15.0469 69.2422 15.1562C69.1328 15.2656 69.0469 15.3932 68.9844 15.5391C68.9219 15.6849 68.8906 15.8385 68.8906 16V22H67.2891V16C67.2891 15.6094 67.362 15.2448 67.5078 14.9062C67.6536 14.5677 67.8542 14.2734 68.1094 14.0234C68.3646 13.7682 68.6615 13.5677 69 13.4219C69.3385 13.276 69.7031 13.2031 70.0938 13.2031H76.0938V14.7969ZM87.9141 17.6016C87.9141 18.2057 87.7995 18.7734 87.5703 19.3047C87.3411 19.8359 87.0286 20.3021 86.6328 20.7031C86.2422 21.099 85.7812 21.4141 85.25 21.6484C84.7188 21.8776 84.151 21.9948 83.5469 22H81.0859C80.4818 21.9948 79.9141 21.8776 79.3828 21.6484C78.8516 21.4141 78.388 21.099 77.9922 20.7031C77.6016 20.3021 77.2917 19.8359 77.0625 19.3047C76.8333 18.7734 76.7188 18.2057 76.7188 17.6016C76.7188 16.9974 76.8333 16.4297 77.0625 15.8984C77.2917 15.362 77.6016 14.8958 77.9922 14.5C78.388 14.099 78.8516 13.7839 79.3828 13.5547C79.9141 13.3203 80.4818 13.2031 81.0859 13.2031H83.5469C83.9479 13.2031 84.3359 13.2552 84.7109 13.3594C85.0859 13.4635 85.4349 13.612 85.7578 13.8047C86.0807 13.9974 86.375 14.2292 86.6406 14.5C86.9062 14.7656 87.1328 15.0625 87.3203 15.3906C87.5078 15.7135 87.6536 16.0625 87.7578 16.4375C87.862 16.8125 87.9141 17.2005 87.9141 17.6016ZM86.3203 17.6016C86.3203 17.2161 86.2474 16.8542 86.1016 16.5156C85.9557 16.1771 85.7578 15.8828 85.5078 15.6328C85.2578 15.3776 84.9635 15.1771 84.625 15.0312C84.2917 14.8802 83.9323 14.8021 83.5469 14.7969H81.0859C80.7005 14.8021 80.3385 14.8802 80 15.0312C79.6667 15.1771 79.375 15.3776 79.125 15.6328C78.875 15.8828 78.6771 16.1771 78.5312 16.5156C78.3906 16.8542 78.3203 17.2161 78.3203 17.6016C78.3203 17.987 78.3906 18.349 78.5312 18.6875C78.6771 19.026 78.875 19.3229 79.125 19.5781C79.375 19.8281 79.6667 20.0286 80 20.1797C80.3385 20.3255 80.7005 20.3984 81.0859 20.3984H83.5469C83.9323 20.3984 84.2917 20.3255 84.625 20.1797C84.9635 20.0286 85.2578 19.8281 85.5078 19.5781C85.7578 19.3229 85.9557 19.026 86.1016 18.6875C86.2474 18.349 86.3203 17.987 86.3203 17.6016ZM91.2656 22H89.6641V13.2031H98.1016C98.7057 13.2031 99.2734 13.3203 99.8047 13.5547C100.336 13.7839 100.797 14.099 101.188 14.5C101.583 14.8958 101.896 15.362 102.125 15.8984C102.354 16.4297 102.469 16.9974 102.469 17.6016V22H100.867V17.6016C100.867 17.2161 100.794 16.8542 100.648 16.5156C100.503 16.1771 100.305 15.8828 100.055 15.6328C99.8047 15.3776 99.5104 15.1771 99.1719 15.0312C98.8385 14.8802 98.4818 14.8021 98.1016 14.7969H96.8672V22H95.2656V14.7969H91.2656V22ZM114.656 22H106.656C106.266 22 105.901 21.9271 105.562 21.7812C105.224 21.6354 104.927 21.4375 104.672 21.1875C104.417 20.9323 104.216 20.6354 104.07 20.2969C103.924 19.9531 103.852 19.5885 103.852 19.2031C103.852 18.8125 103.924 18.4479 104.07 18.1094C104.216 17.7708 104.417 17.474 104.672 17.2188C104.927 16.9635 105.224 16.763 105.562 16.6172C105.901 16.4714 106.266 16.3984 106.656 16.3984H112.25V18H106.656C106.49 18 106.333 18.0339 106.188 18.1016C106.042 18.1641 105.914 18.25 105.805 18.3594C105.695 18.4688 105.609 18.5964 105.547 18.7422C105.484 18.888 105.453 19.0417 105.453 19.2031C105.453 19.3698 105.484 19.526 105.547 19.6719C105.609 19.8125 105.695 19.9375 105.805 20.0469C105.914 20.1562 106.042 20.2422 106.188 20.3047C106.333 20.3672 106.49 20.3984 106.656 20.3984H113.055V16C113.055 15.8385 113.021 15.6849 112.953 15.5391C112.891 15.3932 112.805 15.2656 112.695 15.1562C112.586 15.0469 112.458 14.9609 112.312 14.8984C112.167 14.8307 112.013 14.7969 111.852 14.7969H105.453V13.2031H111.852C112.242 13.2031 112.607 13.276 112.945 13.4219C113.284 13.5677 113.581 13.7682 113.836 14.0234C114.091 14.2734 114.292 14.5677 114.438 14.9062C114.583 15.2448 114.656 15.6094 114.656 16V22ZM127.797 22H117.094V10.7969H118.695V20.3984H127.797V22ZM139.281 16C139.281 16.3906 139.208 16.7552 139.062 17.0938C138.917 17.4323 138.716 17.7292 138.461 17.9844C138.211 18.2344 137.914 18.4323 137.57 18.5781C137.232 18.724 136.87 18.7969 136.484 18.7969H130.352C130.466 19.0312 130.609 19.2474 130.781 19.4453C130.953 19.6432 131.146 19.8125 131.359 19.9531C131.573 20.0938 131.805 20.2031 132.055 20.2812C132.31 20.3594 132.576 20.3984 132.852 20.3984H138.086V22H132.852C132.247 21.9948 131.68 21.8776 131.148 21.6484C130.617 21.4141 130.154 21.099 129.758 20.7031C129.367 20.3021 129.057 19.8359 128.828 19.3047C128.599 18.7734 128.484 18.2057 128.484 17.6016C128.484 16.9974 128.599 16.4297 128.828 15.8984C129.057 15.3672 129.367 14.9036 129.758 14.5078C130.154 14.1068 130.617 13.7917 131.148 13.5625C131.68 13.3281 132.247 13.2083 132.852 13.2031H136.484C136.87 13.2031 137.232 13.276 137.57 13.4219C137.914 13.5677 138.211 13.7682 138.461 14.0234C138.716 14.2734 138.917 14.5677 139.062 14.9062C139.208 15.2448 139.281 15.6094 139.281 16ZM136.484 17.2031C136.646 17.2031 136.799 17.1719 136.945 17.1094C137.091 17.0469 137.219 16.9609 137.328 16.8516C137.438 16.7422 137.523 16.6146 137.586 16.4688C137.648 16.3229 137.68 16.1667 137.68 16C137.68 15.8385 137.648 15.6849 137.586 15.5391C137.523 15.3932 137.438 15.2656 137.328 15.1562C137.219 15.0469 137.091 14.9609 136.945 14.8984C136.799 14.8307 136.646 14.7969 136.484 14.7969H132.852C132.497 14.7969 132.164 14.8594 131.852 14.9844C131.544 15.1094 131.268 15.2812 131.023 15.5C130.784 15.7135 130.583 15.9688 130.422 16.2656C130.266 16.5573 130.164 16.8698 130.117 17.2031H136.484ZM142.453 22H140.852V13.2031H146.852C147.456 13.2031 148.023 13.3203 148.555 13.5547C149.086 13.7839 149.549 14.099 149.945 14.5C150.341 14.8958 150.654 15.362 150.883 15.8984C151.112 16.4297 151.227 16.9974 151.227 17.6016V22H149.625V17.6016C149.625 17.2161 149.552 16.8542 149.406 16.5156C149.26 16.1771 149.062 15.8828 148.812 15.6328C148.562 15.3776 148.268 15.1771 147.93 15.0312C147.596 14.8802 147.237 14.8021 146.852 14.7969H142.453V22ZM162.57 19.2031C162.57 19.5885 162.497 19.9531 162.352 20.2969C162.206 20.6354 162.005 20.9323 161.75 21.1875C161.5 21.4375 161.203 21.6354 160.859 21.7812C160.521 21.9271 160.159 22 159.773 22H152.969V20.3984H159.773C159.935 20.3984 160.089 20.3672 160.234 20.3047C160.38 20.2422 160.508 20.1562 160.617 20.0469C160.727 19.9375 160.812 19.8125 160.875 19.6719C160.938 19.526 160.969 19.3698 160.969 19.2031C160.969 19.0417 160.938 18.888 160.875 18.7422C160.812 18.5964 160.727 18.4688 160.617 18.3594C160.508 18.25 160.38 18.1641 160.234 18.1016C160.089 18.0339 159.935 18 159.773 18H155.367C155.034 18 154.721 17.9375 154.43 17.8125C154.138 17.6875 153.883 17.5182 153.664 17.3047C153.451 17.0859 153.281 16.8307 153.156 16.5391C153.031 16.2474 152.969 15.9349 152.969 15.6016C152.969 15.2682 153.031 14.9557 153.156 14.6641C153.281 14.3724 153.451 14.1198 153.664 13.9062C153.883 13.6875 154.138 13.5156 154.43 13.3906C154.721 13.2656 155.034 13.2031 155.367 13.2031H161.773V14.7969H155.367C155.143 14.7969 154.953 14.875 154.797 15.0312C154.646 15.1823 154.57 15.3724 154.57 15.6016C154.57 15.8255 154.646 16.0156 154.797 16.1719C154.953 16.3229 155.143 16.3984 155.367 16.3984H159.773C160.159 16.3984 160.521 16.4714 160.859 16.6172C161.203 16.763 161.5 16.9635 161.75 17.2188C162.005 17.474 162.206 17.7708 162.352 18.1094C162.497 18.4479 162.57 18.8125 162.57 19.2031Z" fill="#0C0C0C"/>
</svg>
