<svg width="28" height="28" viewBox="0 0 28 28" fill="none" xmlns="http://www.w3.org/2000/svg">
<path d="M15.6002 2.44401C12.8097 2.06163 9.97499 2.70139 7.61919 4.24523C5.2634 5.78907 3.54543 8.13283 2.78226 10.8441C2.0191 13.5553 2.26223 16.4511 3.4668 18.9971C4.67137 21.5431 6.7561 23.5676 9.33635 24.697C9.26624 23.8012 9.32993 22.9 9.52535 22.023C9.74118 21.0442 11.0373 15.6495 11.0373 15.6495C10.7792 15.071 10.6502 14.4431 10.6593 13.8097C10.6593 12.0772 11.6592 10.7845 12.9028 10.7845C13.1263 10.7813 13.3478 10.8261 13.5523 10.9161C13.7568 11.0061 13.9396 11.1391 14.0881 11.306C14.2367 11.473 14.3475 11.6699 14.4132 11.8835C14.4788 12.0971 14.4977 12.3223 14.4685 12.5438C14.4685 13.5938 13.7942 15.1828 13.4418 16.6738C13.3722 16.9473 13.3678 17.2333 13.4289 17.5087C13.4901 17.7842 13.6151 18.0414 13.7939 18.2597C13.9727 18.478 14.2003 18.6513 14.4583 18.7655C14.7163 18.8797 14.9975 18.9317 15.2793 18.9173C17.4925 18.9173 18.9777 16.0812 18.9777 12.7328C18.9777 10.165 17.2778 8.2435 14.1442 8.2435C13.3945 8.21437 12.6466 8.33792 11.9461 8.60663C11.2456 8.87535 10.607 9.28364 10.0691 9.80671C9.53117 10.3298 9.10518 10.9567 8.81697 11.6494C8.52877 12.3422 8.38436 13.0863 8.39251 13.8365C8.35911 14.6687 8.6276 15.485 9.14851 16.1348C9.24585 16.2075 9.31693 16.3098 9.35102 16.4264C9.38511 16.543 9.38037 16.6675 9.33751 16.7812C9.28385 16.9958 9.14851 17.508 9.09485 17.697C9.08353 17.7606 9.05745 17.8207 9.01871 17.8723C8.97997 17.924 8.92964 17.9659 8.87177 17.9946C8.81391 18.0233 8.75011 18.0381 8.68552 18.0376C8.62092 18.0372 8.55733 18.0216 8.49985 17.9922C6.88518 17.3458 6.12451 15.569 6.12451 13.5402C6.12451 10.2187 8.90585 6.24267 14.4708 6.24267C18.8995 6.24267 21.843 9.48251 21.843 12.9475C21.843 17.508 19.3043 20.9368 15.5512 20.9368C14.9902 20.9548 14.4338 20.831 13.9334 20.5769C13.433 20.3228 13.0047 19.9466 12.6882 19.4832C12.6882 19.4832 12.0127 22.1852 11.8808 22.6962C11.6094 23.579 11.2088 24.4168 10.692 25.1823C11.7688 25.509 12.8877 25.6723 14.0123 25.6677C15.5448 25.6689 17.0624 25.3679 18.4783 24.7818C19.8942 24.1957 21.1806 23.3361 22.2638 22.2522C23.3471 21.1683 24.2059 19.8814 24.7911 18.4651C25.3764 17.0489 25.6765 15.5311 25.6743 13.9987C25.6732 11.181 24.6525 8.45885 22.8008 6.33502C20.9491 4.21119 18.3914 2.82911 15.6002 2.44401Z" fill="#0C0C0C"/>
</svg>
