<svg width="21" height="24" viewBox="0 0 21 24" fill="none" xmlns="http://www.w3.org/2000/svg">
<path d="M3 12C3 11.7017 3.09877 11.4155 3.27459 11.2045C3.4504 10.9936 3.68886 10.875 3.9375 10.875H14.9212L10.8125 6.46354C10.6288 6.26409 10.5184 5.98553 10.5054 5.68871C10.4923 5.39189 10.5777 5.10093 10.7428 4.87938C10.9079 4.65784 11.1394 4.52372 11.3867 4.50632C11.634 4.48893 11.8769 4.58967 12.0625 4.78654L18 11.1615C18.0983 11.2671 18.177 11.3963 18.2308 11.5408C18.2846 11.6853 18.3125 11.8418 18.3125 12C18.3125 12.1583 18.2846 12.3148 18.2308 12.4593C18.177 12.6038 18.0983 12.733 18 12.8385L12.0625 19.2135C11.9709 19.313 11.8638 19.3898 11.7473 19.4395C11.6309 19.4891 11.5074 19.5106 11.384 19.5028C11.2606 19.495 11.1397 19.458 11.0283 19.3939C10.9168 19.3298 10.8171 19.2399 10.7347 19.1294C10.6523 19.0189 10.5889 18.8899 10.5482 18.7499C10.5075 18.6099 10.4903 18.4616 10.4975 18.3136C10.5048 18.1655 10.5363 18.0207 10.5904 17.8873C10.6444 17.754 10.7199 17.6348 10.8125 17.5365L14.9212 13.125H3.9375C3.68886 13.125 3.4504 13.0065 3.27459 12.7955C3.09877 12.5846 3 12.2984 3 12Z" fill="#0C0C0C"/>
</svg>
